<svg width="586" height="560" viewBox="0 0 586 560" fill="none" xmlns="http://www.w3.org/2000/svg">
<rect width="586" height="560" fill="#1E1E1E"/>
<rect width="586" height="560" fill="white"/>
<path d="M223.242 201C223.331 201 223.421 201.001 223.51 201.002C223.641 201.005 223.707 201.006 223.759 201.043C223.81 201.08 223.832 201.143 223.877 201.27L224.361 202.634C224.403 202.752 224.424 202.811 224.47 202.848C224.516 202.884 224.579 202.891 224.707 202.905C225.109 202.949 225.507 203.012 225.898 203.092C226.023 203.118 226.086 203.131 226.14 203.11C226.195 203.09 226.233 203.04 226.309 202.941L227.193 201.791C227.274 201.685 227.315 201.631 227.376 201.612C227.436 201.593 227.499 201.612 227.625 201.65C227.795 201.702 227.964 201.757 228.131 201.815C228.255 201.858 228.318 201.879 228.355 201.93C228.393 201.981 228.394 202.048 228.398 202.182L228.437 203.632C228.44 203.757 228.442 203.82 228.474 203.868C228.506 203.917 228.564 203.943 228.681 203.996C229.048 204.163 229.407 204.346 229.755 204.544C229.867 204.608 229.922 204.639 229.981 204.637C230.039 204.635 230.09 204.599 230.194 204.528L231.388 203.709C231.498 203.633 231.554 203.595 231.617 203.595C231.681 203.595 231.735 203.633 231.842 203.709C231.988 203.811 232.132 203.916 232.274 204.023C232.379 204.103 232.432 204.142 232.452 204.202C232.471 204.262 232.452 204.327 232.414 204.455L232.003 205.846C231.968 205.966 231.95 206.026 231.966 206.082C231.981 206.138 232.029 206.181 232.123 206.267C232.42 206.538 232.704 206.822 232.975 207.119C233.061 207.213 233.104 207.261 233.16 207.276C233.216 207.292 233.276 207.274 233.396 207.239L234.787 206.828C234.915 206.79 234.98 206.771 235.04 206.79C235.1 206.81 235.14 206.863 235.219 206.968C235.326 207.11 235.431 207.254 235.533 207.4C235.609 207.508 235.647 207.562 235.647 207.625C235.647 207.688 235.609 207.744 235.533 207.854L234.714 209.048C234.643 209.152 234.607 209.203 234.605 209.261C234.603 209.32 234.634 209.375 234.698 209.487C234.896 209.835 235.079 210.194 235.246 210.561C235.299 210.678 235.325 210.736 235.374 210.768C235.422 210.8 235.485 210.802 235.61 210.805L237.06 210.844C237.194 210.848 237.261 210.849 237.312 210.887C237.363 210.924 237.384 210.987 237.427 211.111C237.485 211.279 237.54 211.447 237.592 211.618C237.63 211.743 237.649 211.806 237.63 211.867C237.611 211.927 237.558 211.968 237.451 212.049L236.301 212.933C236.202 213.009 236.152 213.048 236.132 213.102C236.111 213.157 236.124 213.219 236.15 213.344C236.23 213.735 236.293 214.133 236.337 214.535C236.351 214.663 236.358 214.726 236.395 214.772C236.431 214.818 236.49 214.839 236.608 214.881L237.973 215.365C238.099 215.41 238.162 215.432 238.199 215.484C238.236 215.535 238.237 215.601 238.24 215.733C238.241 215.822 238.242 215.911 238.242 216C238.242 216.089 238.241 216.178 238.24 216.267C238.237 216.399 238.236 216.465 238.199 216.516C238.162 216.568 238.099 216.59 237.972 216.635L236.608 217.119C236.49 217.161 236.431 217.182 236.395 217.228C236.358 217.273 236.351 217.337 236.337 217.464C236.293 217.867 236.23 218.264 236.15 218.656C236.124 218.781 236.111 218.843 236.132 218.898C236.152 218.952 236.202 218.99 236.301 219.067L237.451 219.951C237.558 220.032 237.611 220.073 237.63 220.133C237.649 220.194 237.63 220.257 237.592 220.382C237.54 220.553 237.485 220.721 237.427 220.889C237.384 221.013 237.363 221.075 237.312 221.113C237.261 221.15 237.194 221.152 237.06 221.156L235.61 221.195C235.485 221.198 235.422 221.2 235.374 221.232C235.325 221.264 235.299 221.322 235.246 221.439C235.079 221.806 234.896 222.165 234.698 222.513C234.634 222.625 234.603 222.68 234.605 222.738C234.607 222.797 234.643 222.848 234.714 222.952L235.533 224.146C235.609 224.256 235.647 224.312 235.647 224.375C235.647 224.438 235.609 224.492 235.533 224.6C235.431 224.746 235.326 224.89 235.219 225.032C235.14 225.137 235.1 225.19 235.04 225.209C234.98 225.229 234.915 225.21 234.787 225.172L233.396 224.761C233.276 224.726 233.216 224.708 233.16 224.724C233.104 224.739 233.061 224.787 232.975 224.881C232.704 225.178 232.42 225.462 232.123 225.733C232.029 225.819 231.981 225.862 231.966 225.918C231.95 225.974 231.968 226.034 232.003 226.154L232.414 227.545C232.452 227.673 232.471 227.737 232.452 227.798C232.432 227.858 232.379 227.897 232.274 227.977C232.132 228.084 231.988 228.189 231.842 228.291C231.735 228.367 231.681 228.404 231.617 228.405C231.554 228.405 231.498 228.367 231.388 228.291L230.194 227.472C230.09 227.401 230.039 227.365 229.981 227.363C229.922 227.36 229.867 227.392 229.755 227.455C229.407 227.654 229.048 227.837 228.681 228.004C228.564 228.057 228.506 228.083 228.474 228.132C228.442 228.18 228.44 228.243 228.437 228.368L228.398 229.818C228.394 229.952 228.393 230.019 228.355 230.07C228.318 230.121 228.255 230.142 228.131 230.185C227.964 230.243 227.795 230.298 227.625 230.35C227.499 230.388 227.436 230.407 227.376 230.388C227.315 230.368 227.274 230.315 227.193 230.209L226.309 229.059C226.233 228.959 226.195 228.91 226.14 228.89C226.086 228.869 226.023 228.882 225.898 228.908C225.507 228.988 225.109 229.05 224.707 229.095C224.579 229.109 224.516 229.116 224.47 229.152C224.424 229.189 224.403 229.248 224.361 229.366L223.877 230.73C223.832 230.857 223.81 230.92 223.759 230.957C223.707 230.994 223.641 230.995 223.51 230.998C223.421 230.999 223.331 231 223.242 231C223.153 231 223.064 230.999 222.975 230.998C222.843 230.995 222.777 230.994 222.726 230.957C222.674 230.92 222.652 230.857 222.607 230.73L222.123 229.366C222.081 229.248 222.06 229.189 222.014 229.152C221.969 229.116 221.905 229.109 221.778 229.095C221.375 229.05 220.978 228.988 220.587 228.908C220.461 228.882 220.399 228.869 220.344 228.89C220.29 228.91 220.252 228.959 220.175 229.059L219.292 230.209C219.21 230.315 219.169 230.368 219.109 230.388C219.048 230.407 218.986 230.388 218.86 230.35C218.69 230.298 218.521 230.243 218.353 230.185C218.229 230.142 218.167 230.121 218.129 230.07C218.092 230.019 218.09 229.952 218.086 229.818L218.047 228.368C218.044 228.243 218.042 228.18 218.01 228.132C217.978 228.083 217.92 228.057 217.803 228.004C217.436 227.837 217.077 227.654 216.729 227.455C216.617 227.392 216.562 227.36 216.504 227.363C216.445 227.365 216.394 227.401 216.29 227.472L215.096 228.291C214.986 228.367 214.931 228.405 214.867 228.405C214.804 228.404 214.75 228.367 214.642 228.291C214.496 228.189 214.352 228.084 214.21 227.977C214.105 227.897 214.053 227.858 214.033 227.798C214.013 227.737 214.032 227.673 214.07 227.545L214.481 226.154C214.516 226.034 214.534 225.974 214.518 225.918C214.503 225.862 214.456 225.819 214.361 225.732C214.065 225.462 213.78 225.178 213.51 224.881C213.423 224.787 213.38 224.739 213.324 224.724C213.268 224.708 213.208 224.726 213.088 224.761L211.697 225.172C211.569 225.21 211.505 225.229 211.445 225.209C211.384 225.19 211.345 225.137 211.265 225.032C211.158 224.89 211.053 224.746 210.951 224.6C210.875 224.492 210.838 224.438 210.837 224.375C210.837 224.312 210.875 224.256 210.951 224.146L211.77 222.952C211.841 222.848 211.877 222.797 211.879 222.738C211.882 222.68 211.85 222.625 211.787 222.513C211.588 222.165 211.405 221.806 211.238 221.439C211.185 221.322 211.159 221.264 211.11 221.232C211.062 221.2 210.999 221.198 210.874 221.195L209.424 221.156C209.29 221.152 209.223 221.15 209.172 221.113C209.121 221.075 209.1 221.013 209.057 220.889C208.999 220.721 208.944 220.553 208.893 220.382C208.854 220.257 208.835 220.194 208.854 220.133C208.874 220.073 208.927 220.032 209.033 219.951L210.183 219.067C210.283 218.99 210.332 218.952 210.353 218.898C210.373 218.843 210.36 218.781 210.334 218.656C210.254 218.264 210.192 217.867 210.147 217.464C210.133 217.337 210.126 217.273 210.09 217.228C210.054 217.182 209.994 217.161 209.876 217.119L208.512 216.635C208.385 216.59 208.322 216.568 208.285 216.516C208.248 216.465 208.247 216.399 208.245 216.267C208.243 216.178 208.242 216.089 208.242 216C208.242 215.911 208.243 215.822 208.245 215.733C208.247 215.601 208.248 215.535 208.285 215.484C208.322 215.432 208.385 215.41 208.512 215.365L209.876 214.881C209.994 214.839 210.054 214.818 210.09 214.772C210.126 214.726 210.133 214.663 210.147 214.535C210.192 214.133 210.254 213.735 210.334 213.344C210.36 213.219 210.373 213.157 210.353 213.102C210.332 213.048 210.283 213.009 210.183 212.933L209.033 212.049C208.927 211.968 208.874 211.927 208.854 211.867C208.835 211.806 208.854 211.743 208.893 211.618C208.944 211.447 208.999 211.279 209.057 211.111C209.1 210.987 209.121 210.924 209.172 210.887C209.223 210.849 209.29 210.848 209.424 210.844L210.874 210.805C210.999 210.802 211.062 210.8 211.11 210.768C211.159 210.736 211.185 210.678 211.238 210.561C211.405 210.194 211.588 209.835 211.787 209.487C211.85 209.375 211.882 209.32 211.879 209.261C211.877 209.203 211.841 209.152 211.77 209.048L210.951 207.854C210.875 207.744 210.837 207.688 210.837 207.625C210.838 207.562 210.875 207.508 210.951 207.4C211.053 207.254 211.158 207.11 211.265 206.968C211.345 206.863 211.384 206.81 211.445 206.79C211.505 206.771 211.569 206.79 211.697 206.828L213.088 207.239C213.208 207.274 213.268 207.292 213.324 207.276C213.38 207.261 213.423 207.213 213.51 207.119C213.78 206.822 214.065 206.538 214.361 206.267C214.456 206.181 214.503 206.138 214.518 206.082C214.534 206.026 214.516 205.966 214.481 205.846L214.07 204.455C214.032 204.327 214.013 204.262 214.033 204.202C214.053 204.142 214.105 204.103 214.21 204.023C214.352 203.916 214.496 203.811 214.642 203.709C214.75 203.633 214.804 203.595 214.867 203.595C214.931 203.595 214.986 203.633 215.096 203.709L216.29 204.528C216.394 204.599 216.445 204.635 216.504 204.637C216.562 204.64 216.618 204.608 216.729 204.544C217.077 204.346 217.436 204.163 217.803 203.996C217.92 203.943 217.978 203.917 218.01 203.868C218.042 203.82 218.044 203.757 218.047 203.632L218.086 202.182C218.09 202.048 218.092 201.981 218.129 201.93C218.167 201.879 218.229 201.858 218.353 201.815C218.521 201.757 218.69 201.702 218.86 201.65C218.986 201.612 219.048 201.593 219.109 201.612C219.169 201.631 219.21 201.685 219.292 201.791L220.175 202.941C220.252 203.04 220.29 203.09 220.344 203.11C220.399 203.131 220.461 203.118 220.587 203.092C220.978 203.012 221.375 202.949 221.778 202.905C221.905 202.891 221.969 202.884 222.014 202.848C222.06 202.811 222.081 202.752 222.123 202.634L222.607 201.27C222.652 201.143 222.674 201.08 222.726 201.043C222.777 201.006 222.843 201.005 222.975 201.002C223.064 201.001 223.153 201 223.242 201ZM223.267 204.649C217.054 204.649 212.017 209.685 212.017 215.899C212.017 222.112 217.054 227.149 223.267 227.149C229.48 227.149 234.517 222.112 234.517 215.899C234.517 209.685 229.48 204.649 223.267 204.649Z" fill="#FB9A03"/>
<path d="M284.742 224C284.983 224 285.224 224.002 285.464 224.007C285.82 224.013 285.997 224.016 286.136 224.116C286.275 224.216 286.336 224.387 286.457 224.728L287.764 228.412C287.877 228.731 287.934 228.891 288.057 228.988C288.18 229.086 288.352 229.105 288.696 229.143C289.784 229.263 290.856 229.433 291.912 229.649C292.25 229.718 292.419 229.753 292.566 229.698C292.713 229.643 292.816 229.509 293.022 229.241L295.409 226.135C295.629 225.848 295.739 225.705 295.902 225.653C296.065 225.601 296.235 225.652 296.575 225.756C297.034 225.896 297.49 226.044 297.942 226.2C298.278 226.316 298.446 226.373 298.547 226.511C298.648 226.649 298.653 226.83 298.663 227.192L298.768 231.107C298.777 231.444 298.781 231.613 298.868 231.744C298.955 231.875 299.112 231.946 299.427 232.089C300.419 232.539 301.387 233.034 302.328 233.57C302.629 233.741 302.779 233.826 302.936 233.82C303.093 233.813 303.233 233.718 303.512 233.526L306.735 231.314C307.034 231.109 307.183 231.006 307.355 231.007C307.526 231.008 307.671 231.11 307.963 231.314C308.357 231.59 308.746 231.873 309.129 232.163C309.412 232.377 309.554 232.484 309.608 232.646C309.661 232.809 309.61 232.982 309.507 233.329L308.398 237.084C308.302 237.408 308.254 237.57 308.296 237.721C308.338 237.873 308.466 237.989 308.721 238.222C309.521 238.953 310.289 239.72 311.02 240.521C311.252 240.776 311.369 240.904 311.52 240.946C311.672 240.988 311.834 240.94 312.158 240.844L315.913 239.735C316.26 239.632 316.433 239.581 316.596 239.634C316.758 239.688 316.865 239.83 317.079 240.113C317.369 240.496 317.652 240.885 317.928 241.279C318.132 241.57 318.234 241.716 318.235 241.887C318.236 242.059 318.133 242.208 317.928 242.507L315.716 245.73C315.524 246.009 315.428 246.149 315.422 246.306C315.415 246.463 315.501 246.613 315.672 246.914C316.208 247.855 316.703 248.823 317.153 249.815C317.296 250.129 317.367 250.287 317.498 250.374C317.629 250.46 317.798 250.465 318.135 250.474L322.05 250.579C322.412 250.589 322.592 250.594 322.73 250.695C322.868 250.796 322.926 250.964 323.042 251.3C323.198 251.752 323.346 252.208 323.486 252.667C323.59 253.007 323.641 253.177 323.589 253.34C323.537 253.503 323.394 253.613 323.107 253.833L320.001 256.22C319.733 256.426 319.599 256.528 319.544 256.676C319.489 256.823 319.524 256.992 319.593 257.33C319.809 258.386 319.978 259.458 320.099 260.546C320.137 260.889 320.156 261.061 320.254 261.185C320.351 261.308 320.511 261.364 320.83 261.478L324.514 262.785C324.855 262.906 325.026 262.967 325.126 263.106C325.226 263.244 325.229 263.422 325.236 263.778C325.24 264.018 325.242 264.259 325.242 264.5C325.242 264.741 325.24 264.982 325.236 265.222C325.229 265.578 325.226 265.755 325.126 265.894C325.026 266.033 324.855 266.094 324.514 266.215L320.83 267.522C320.511 267.635 320.351 267.692 320.254 267.815C320.156 267.938 320.137 268.11 320.099 268.454C319.978 269.541 319.809 270.614 319.593 271.67C319.524 272.008 319.489 272.177 319.544 272.324C319.599 272.471 319.733 272.574 320.001 272.78L323.107 275.166C323.394 275.387 323.537 275.497 323.589 275.66C323.641 275.823 323.59 275.993 323.486 276.332C323.346 276.792 323.198 277.248 323.042 277.7C322.926 278.036 322.868 278.204 322.73 278.305C322.592 278.406 322.412 278.411 322.05 278.421L318.135 278.526C317.798 278.535 317.629 278.539 317.498 278.626C317.367 278.713 317.295 278.87 317.153 279.184C316.703 280.177 316.208 281.145 315.672 282.086C315.501 282.386 315.415 282.537 315.422 282.694C315.428 282.851 315.524 282.99 315.716 283.269L317.928 286.493C318.133 286.792 318.236 286.941 318.235 287.112C318.234 287.284 318.132 287.429 317.928 287.721C317.652 288.115 317.369 288.503 317.079 288.887C316.865 289.17 316.758 289.312 316.596 289.365C316.433 289.419 316.26 289.368 315.913 289.265L312.158 288.155C311.834 288.06 311.672 288.012 311.52 288.054C311.369 288.096 311.253 288.224 311.02 288.479C310.289 289.279 309.522 290.047 308.721 290.778C308.466 291.011 308.338 291.127 308.296 291.278C308.254 291.43 308.302 291.592 308.398 291.916L309.507 295.671C309.61 296.018 309.661 296.191 309.608 296.353C309.554 296.516 309.412 296.623 309.129 296.837C308.746 297.127 308.357 297.41 307.963 297.686C307.671 297.89 307.526 297.992 307.355 297.993C307.183 297.994 307.034 297.891 306.735 297.686L303.512 295.473C303.233 295.282 303.093 295.186 302.936 295.18C302.779 295.173 302.629 295.259 302.328 295.43C301.387 295.966 300.419 296.46 299.427 296.911C299.112 297.053 298.955 297.125 298.868 297.256C298.781 297.386 298.777 297.555 298.768 297.893L298.663 301.808C298.653 302.169 298.648 302.35 298.547 302.488C298.446 302.626 298.278 302.684 297.942 302.8C297.49 302.956 297.034 303.104 296.575 303.244C296.235 303.347 296.065 303.399 295.902 303.347C295.739 303.295 295.629 303.151 295.409 302.865L293.022 299.758C292.816 299.491 292.713 299.357 292.566 299.302C292.419 299.247 292.25 299.282 291.912 299.351C290.856 299.567 289.784 299.736 288.696 299.857C288.352 299.895 288.18 299.914 288.057 300.011C287.934 300.109 287.877 300.269 287.764 300.588L286.457 304.272C286.336 304.613 286.275 304.784 286.136 304.884C285.998 304.984 285.82 304.987 285.464 304.993C285.224 304.998 284.983 305 284.742 305C284.501 305 284.26 304.998 284.02 304.993C283.664 304.987 283.487 304.984 283.348 304.884C283.209 304.784 283.148 304.613 283.027 304.272L281.72 300.587C281.607 300.269 281.55 300.109 281.427 300.011C281.303 299.914 281.132 299.895 280.788 299.857C279.7 299.736 278.628 299.567 277.572 299.351C277.234 299.282 277.065 299.247 276.918 299.302C276.771 299.357 276.668 299.491 276.462 299.758L274.075 302.865C273.855 303.151 273.745 303.295 273.582 303.347C273.419 303.399 273.249 303.347 272.909 303.244C272.45 303.104 271.994 302.956 271.542 302.8C271.206 302.684 271.038 302.626 270.937 302.488C270.836 302.35 270.831 302.169 270.821 301.808L270.716 297.893C270.707 297.555 270.703 297.386 270.616 297.256C270.529 297.125 270.372 297.053 270.057 296.911C269.065 296.46 268.097 295.966 267.156 295.43C266.855 295.259 266.705 295.173 266.548 295.18C266.391 295.186 266.251 295.282 265.972 295.473L262.749 297.686C262.45 297.891 262.301 297.994 262.129 297.993C261.958 297.992 261.813 297.89 261.521 297.686C261.127 297.41 260.739 297.127 260.355 296.837C260.072 296.623 259.93 296.516 259.877 296.353C259.823 296.191 259.874 296.018 259.977 295.671L261.086 291.915C261.182 291.591 261.23 291.429 261.188 291.278C261.146 291.127 261.018 291.01 260.763 290.778C259.963 290.046 259.195 289.279 258.464 288.479C258.231 288.224 258.115 288.096 257.964 288.054C257.812 288.012 257.65 288.06 257.326 288.155L253.571 289.265C253.224 289.368 253.051 289.419 252.888 289.365C252.726 289.312 252.619 289.17 252.405 288.887C252.115 288.503 251.832 288.114 251.556 287.721C251.352 287.429 251.25 287.284 251.249 287.112C251.248 286.941 251.351 286.792 251.556 286.493L253.768 283.269C253.96 282.99 254.056 282.851 254.062 282.694C254.069 282.537 253.983 282.386 253.812 282.086C253.276 281.145 252.781 280.177 252.331 279.184C252.189 278.87 252.117 278.713 251.986 278.626C251.855 278.539 251.687 278.535 251.349 278.526L247.434 278.421C247.073 278.411 246.892 278.406 246.754 278.305C246.616 278.204 246.558 278.036 246.442 277.7C246.286 277.248 246.138 276.792 245.998 276.332C245.895 275.993 245.843 275.823 245.895 275.66C245.947 275.497 246.091 275.387 246.377 275.166L249.484 272.78C249.751 272.574 249.885 272.471 249.94 272.324C249.995 272.177 249.96 272.008 249.891 271.67C249.675 270.614 249.506 269.541 249.385 268.454C249.347 268.11 249.328 267.938 249.231 267.815C249.133 267.692 248.973 267.635 248.654 267.522L244.97 266.215C244.629 266.094 244.458 266.033 244.358 265.894C244.258 265.755 244.255 265.577 244.249 265.222C244.244 264.982 244.242 264.741 244.242 264.5C244.242 264.259 244.244 264.018 244.249 263.778C244.255 263.422 244.258 263.244 244.358 263.106C244.458 262.967 244.629 262.906 244.97 262.785L248.654 261.478C248.973 261.364 249.133 261.308 249.231 261.185C249.328 261.061 249.347 260.889 249.385 260.546C249.506 259.458 249.675 258.386 249.891 257.33C249.96 256.992 249.995 256.823 249.94 256.676C249.885 256.528 249.751 256.426 249.484 256.22L246.377 253.833C246.091 253.613 245.947 253.503 245.895 253.34C245.843 253.177 245.895 253.007 245.998 252.667C246.138 252.208 246.286 251.752 246.442 251.3C246.558 250.964 246.616 250.796 246.754 250.695C246.892 250.594 247.073 250.589 247.434 250.579L251.349 250.474C251.687 250.465 251.855 250.46 251.986 250.374C252.117 250.287 252.189 250.129 252.331 249.815C252.782 248.823 253.276 247.855 253.812 246.914C253.983 246.613 254.069 246.463 254.062 246.306C254.056 246.149 253.96 246.009 253.768 245.73L251.556 242.507C251.351 242.208 251.248 242.059 251.249 241.887C251.25 241.716 251.352 241.57 251.556 241.279C251.832 240.885 252.115 240.496 252.405 240.113C252.619 239.83 252.726 239.688 252.888 239.634C253.051 239.581 253.224 239.632 253.571 239.735L257.326 240.844C257.651 240.94 257.813 240.988 257.964 240.946C258.115 240.904 258.232 240.776 258.464 240.521C259.195 239.72 259.963 238.953 260.763 238.222C261.018 237.989 261.146 237.873 261.188 237.722C261.23 237.57 261.182 237.408 261.086 237.084L259.977 233.329C259.874 232.982 259.823 232.809 259.877 232.646C259.93 232.484 260.072 232.377 260.355 232.163C260.739 231.873 261.127 231.59 261.521 231.314C261.813 231.11 261.958 231.008 262.129 231.007C262.301 231.006 262.45 231.109 262.749 231.314L265.973 233.526C266.252 233.718 266.391 233.814 266.548 233.82C266.705 233.827 266.856 233.741 267.156 233.57C268.097 233.034 269.065 232.539 270.057 232.089C270.372 231.946 270.529 231.875 270.616 231.744C270.703 231.613 270.707 231.444 270.716 231.107L270.821 227.192C270.831 226.83 270.836 226.649 270.937 226.511C271.038 226.373 271.206 226.316 271.542 226.2C271.994 226.044 272.45 225.896 272.909 225.756C273.249 225.652 273.419 225.601 273.582 225.653C273.745 225.705 273.855 225.848 274.075 226.135L276.462 229.241C276.668 229.509 276.771 229.643 276.918 229.698C277.065 229.753 277.234 229.718 277.572 229.649C278.628 229.433 279.7 229.263 280.788 229.143C281.132 229.105 281.303 229.086 281.427 228.988C281.55 228.891 281.607 228.731 281.72 228.412L283.027 224.728C283.148 224.387 283.209 224.216 283.348 224.116C283.487 224.016 283.664 224.013 284.02 224.007C284.26 224.002 284.501 224 284.742 224ZM284.808 233.851C268.033 233.851 254.433 247.451 254.433 264.226C254.433 281.002 268.033 294.601 284.808 294.601C301.584 294.601 315.183 281.002 315.183 264.226C315.183 247.451 301.584 233.851 284.808 233.851Z" fill="#FB9A03"/>
<path d="M285 117C285.881 117 286.76 117.008 287.638 117.024C288.937 117.047 289.587 117.059 290.095 117.424C290.602 117.789 290.823 118.413 291.266 119.66L296.043 133.123C296.456 134.289 296.663 134.872 297.114 135.229C297.564 135.586 298.192 135.656 299.449 135.795C303.423 136.234 307.343 136.854 311.201 137.643C312.437 137.896 313.054 138.023 313.592 137.822C314.13 137.622 314.506 137.132 315.258 136.154L323.979 124.803C324.784 123.754 325.187 123.23 325.782 123.04C326.377 122.849 326.998 123.038 328.24 123.417C329.918 123.929 331.584 124.47 333.236 125.039C334.464 125.462 335.078 125.673 335.448 126.178C335.818 126.682 335.835 127.343 335.871 128.665L336.254 142.97C336.287 144.204 336.303 144.821 336.621 145.3C336.938 145.778 337.513 146.039 338.662 146.56C342.288 148.205 345.825 150.012 349.265 151.971C350.363 152.596 350.911 152.909 351.486 152.885C352.06 152.861 352.57 152.511 353.589 151.811L365.37 143.726C366.462 142.977 367.007 142.602 367.633 142.605C368.259 142.609 368.791 142.982 369.855 143.728C371.295 144.737 372.716 145.771 374.117 146.83C375.153 147.612 375.671 148.003 375.866 148.596C376.062 149.19 375.874 149.823 375.5 151.091L371.445 164.813C371.095 165.997 370.92 166.589 371.074 167.143C371.228 167.696 371.694 168.121 372.625 168.972C375.551 171.643 378.355 174.447 381.027 177.374C381.877 178.305 382.302 178.771 382.855 178.925C383.409 179.079 384.001 178.905 385.185 178.555L398.908 174.499C400.176 174.125 400.809 173.937 401.403 174.133C401.996 174.328 402.387 174.846 403.169 175.882C404.228 177.283 405.262 178.704 406.271 180.144C407.017 181.208 407.39 181.74 407.393 182.366C407.397 182.992 407.022 183.537 406.273 184.629L398.187 196.409C397.487 197.428 397.137 197.938 397.113 198.512C397.089 199.087 397.402 199.636 398.027 200.734C399.987 204.173 401.794 207.71 403.439 211.337C403.96 212.485 404.221 213.06 404.699 213.377C405.178 213.695 405.795 213.711 407.029 213.744L421.334 214.128C422.656 214.164 423.317 214.181 423.821 214.551C424.326 214.921 424.537 215.535 424.96 216.762C425.529 218.415 426.07 220.081 426.582 221.759C426.961 223.001 427.15 223.622 426.959 224.217C426.769 224.812 426.245 225.215 425.196 226.02L413.845 234.741C412.867 235.493 412.377 235.869 412.177 236.407C411.976 236.945 412.103 237.562 412.356 238.798C413.145 242.656 413.765 246.576 414.204 250.55C414.343 251.806 414.413 252.434 414.77 252.884C415.127 253.335 415.71 253.542 416.875 253.955L430.339 258.733C431.586 259.176 432.21 259.397 432.575 259.904C432.94 260.411 432.952 261.061 432.976 262.361C432.992 263.239 433 264.119 433 265C433 265.881 432.992 266.76 432.976 267.638C432.952 268.938 432.94 269.588 432.575 270.095C432.21 270.602 431.586 270.823 430.339 271.266L416.876 276.043C415.71 276.456 415.127 276.663 414.77 277.114C414.413 277.564 414.343 278.192 414.204 279.449C413.765 283.423 413.145 287.343 412.356 291.201C412.103 292.437 411.976 293.054 412.177 293.592C412.377 294.13 412.867 294.506 413.845 295.258L425.196 303.979C426.245 304.784 426.769 305.187 426.959 305.782C427.15 306.377 426.961 306.998 426.582 308.24C426.07 309.918 425.529 311.584 424.96 313.236C424.537 314.464 424.326 315.078 423.821 315.448C423.317 315.818 422.656 315.835 421.334 315.871L407.029 316.254C405.795 316.287 405.178 316.303 404.699 316.621C404.221 316.938 403.96 317.513 403.439 318.662C401.793 322.288 399.987 325.825 398.027 329.265C397.402 330.362 397.089 330.911 397.113 331.486C397.137 332.06 397.487 332.57 398.187 333.589L406.273 345.37C407.022 346.462 407.397 347.007 407.393 347.633C407.39 348.259 407.017 348.791 406.271 349.855C405.262 351.295 404.228 352.716 403.169 354.117C402.387 355.153 401.996 355.671 401.403 355.866C400.809 356.062 400.176 355.874 398.908 355.5L385.186 351.445C384.002 351.095 383.41 350.92 382.856 351.074C382.303 351.228 381.878 351.694 381.028 352.625C378.356 355.552 375.552 358.356 372.625 361.028C371.694 361.878 371.228 362.303 371.074 362.856C370.92 363.41 371.095 364.002 371.445 365.186L375.5 378.908C375.874 380.176 376.062 380.809 375.866 381.403C375.671 381.996 375.153 382.387 374.117 383.169C372.716 384.228 371.295 385.262 369.855 386.271C368.791 387.017 368.259 387.39 367.633 387.393C367.007 387.397 366.462 387.022 365.37 386.273L353.589 378.187C352.57 377.487 352.06 377.137 351.486 377.113C350.911 377.089 350.362 377.402 349.265 378.027C345.825 379.987 342.288 381.793 338.662 383.439C337.513 383.96 336.938 384.221 336.621 384.699C336.303 385.178 336.287 385.795 336.254 387.029L335.871 401.334C335.835 402.656 335.818 403.317 335.448 403.821C335.078 404.326 334.464 404.537 333.236 404.96C331.584 405.529 329.918 406.07 328.24 406.582C326.998 406.961 326.377 407.15 325.782 406.959C325.187 406.769 324.784 406.245 323.979 405.196L315.258 393.845C314.506 392.867 314.13 392.377 313.592 392.177C313.054 391.976 312.437 392.103 311.201 392.356C307.343 393.145 303.423 393.765 299.449 394.204C298.192 394.343 297.564 394.413 297.114 394.77C296.663 395.127 296.456 395.71 296.043 396.876L291.266 410.339C290.823 411.586 290.602 412.21 290.095 412.575C289.588 412.94 288.938 412.952 287.638 412.976C286.76 412.992 285.881 413 285 413C284.119 413 283.239 412.992 282.361 412.976C281.061 412.952 280.411 412.94 279.904 412.575C279.397 412.21 279.176 411.586 278.733 410.339L273.955 396.875C273.542 395.71 273.335 395.127 272.884 394.77C272.434 394.413 271.806 394.343 270.55 394.204C266.576 393.765 262.656 393.145 258.798 392.356C257.562 392.103 256.945 391.976 256.407 392.177C255.869 392.377 255.493 392.867 254.741 393.845L246.02 405.196C245.215 406.245 244.812 406.769 244.217 406.959C243.622 407.15 243.001 406.961 241.759 406.582C240.081 406.07 238.415 405.529 236.762 404.96C235.535 404.537 234.921 404.326 234.551 403.821C234.181 403.317 234.164 402.656 234.128 401.334L233.744 387.029C233.711 385.795 233.695 385.178 233.377 384.699C233.06 384.221 232.485 383.96 231.337 383.439C227.71 381.794 224.173 379.987 220.734 378.027C219.636 377.402 219.087 377.089 218.512 377.113C217.938 377.137 217.428 377.487 216.409 378.187L204.629 386.273C203.537 387.022 202.992 387.397 202.366 387.393C201.74 387.39 201.208 387.017 200.144 386.271C198.704 385.262 197.283 384.228 195.882 383.169C194.846 382.387 194.328 381.996 194.133 381.403C193.937 380.809 194.125 380.176 194.499 378.908L198.555 365.185C198.905 364.001 199.079 363.409 198.925 362.855C198.771 362.302 198.305 361.877 197.374 361.027C194.447 358.355 191.643 355.551 188.972 352.625C188.121 351.694 187.696 351.228 187.143 351.074C186.589 350.92 185.997 351.095 184.813 351.445L171.091 355.5C169.823 355.874 169.19 356.062 168.596 355.866C168.003 355.671 167.612 355.153 166.83 354.117C165.771 352.716 164.737 351.295 163.728 349.855C162.982 348.791 162.609 348.259 162.605 347.633C162.602 347.007 162.977 346.462 163.726 345.37L171.811 333.589C172.511 332.57 172.861 332.06 172.885 331.486C172.909 330.911 172.596 330.363 171.971 329.265C170.012 325.825 168.205 322.288 166.56 318.662C166.039 317.513 165.778 316.938 165.3 316.621C164.821 316.303 164.204 316.287 162.97 316.254L148.665 315.871C147.343 315.835 146.682 315.818 146.178 315.448C145.673 315.078 145.462 314.464 145.039 313.236C144.47 311.584 143.929 309.918 143.417 308.24C143.038 306.998 142.849 306.377 143.04 305.782C143.23 305.187 143.754 304.784 144.803 303.979L156.154 295.258C157.132 294.506 157.622 294.13 157.822 293.592C158.023 293.054 157.896 292.437 157.643 291.201C156.854 287.343 156.234 283.423 155.795 279.449C155.656 278.192 155.586 277.564 155.229 277.114C154.872 276.663 154.289 276.456 153.123 276.043L139.66 271.266C138.413 270.823 137.789 270.602 137.424 270.095C137.059 269.587 137.047 268.937 137.024 267.638C137.008 266.76 137 265.881 137 265C137 264.119 137.008 263.239 137.024 262.361C137.047 261.062 137.059 260.412 137.424 259.904C137.789 259.397 138.413 259.176 139.66 258.733L153.124 253.955C154.289 253.542 154.872 253.335 155.229 252.884C155.586 252.434 155.656 251.806 155.795 250.55C156.234 246.576 156.854 242.656 157.643 238.798C157.896 237.562 158.023 236.945 157.822 236.407C157.622 235.869 157.132 235.493 156.154 234.741L144.803 226.02C143.754 225.215 143.23 224.812 143.04 224.217C142.849 223.622 143.038 223.001 143.417 221.759C143.929 220.081 144.47 218.415 145.039 216.762C145.462 215.535 145.673 214.921 146.178 214.551C146.682 214.181 147.343 214.164 148.665 214.128L162.97 213.744C164.204 213.711 164.821 213.695 165.3 213.377C165.778 213.06 166.039 212.485 166.56 211.337C168.206 207.711 170.012 204.173 171.972 200.734C172.597 199.637 172.91 199.088 172.886 198.513C172.862 197.939 172.512 197.429 171.812 196.41L163.726 184.629C162.977 183.537 162.602 182.992 162.606 182.366C162.609 181.74 162.982 181.208 163.728 180.144C164.737 178.704 165.771 177.283 166.83 175.882C167.612 174.846 168.003 174.328 168.596 174.133C169.19 173.937 169.823 174.125 171.091 174.499L184.814 178.555C185.998 178.905 186.59 179.079 187.144 178.925C187.697 178.771 188.122 178.305 188.972 177.374C191.644 174.448 194.448 171.644 197.374 168.972C198.305 168.122 198.771 167.697 198.925 167.144C199.079 166.59 198.905 165.998 198.555 164.814L194.499 151.091C194.125 149.823 193.937 149.19 194.133 148.596C194.328 148.003 194.846 147.612 195.882 146.83C197.283 145.771 198.704 144.737 200.144 143.728C201.208 142.982 201.74 142.609 202.366 142.606C202.992 142.602 203.537 142.977 204.629 143.726L216.41 151.812C217.429 152.512 217.939 152.862 218.513 152.886C219.088 152.91 219.637 152.597 220.734 151.972C224.173 150.012 227.711 148.206 231.337 146.56C232.485 146.039 233.06 145.778 233.377 145.3C233.695 144.821 233.711 144.204 233.744 142.97L234.128 128.665C234.164 127.343 234.181 126.682 234.551 126.178C234.921 125.673 235.535 125.462 236.762 125.039C238.415 124.47 240.081 123.929 241.759 123.417C243.001 123.038 243.622 122.849 244.217 123.04C244.812 123.23 245.215 123.754 246.02 124.803L254.741 136.154C255.493 137.132 255.869 137.622 256.407 137.822C256.945 138.023 257.562 137.896 258.798 137.643C262.656 136.854 266.576 136.234 270.55 135.795C271.806 135.656 272.434 135.586 272.884 135.229C273.335 134.872 273.542 134.289 273.955 133.124L278.733 119.66C279.176 118.413 279.397 117.789 279.904 117.424C280.412 117.059 281.062 117.047 282.361 117.024C283.239 117.008 284.119 117 285 117ZM285.242 153C223.939 153 174.242 202.696 174.242 264C174.242 325.304 223.939 375 285.242 375C346.546 375 396.242 325.304 396.242 264C396.242 202.696 346.546 153 285.242 153Z" fill="#FB9A03"/>
<rect x="278.242" y="159" width="14" height="57" rx="7" fill="#FB9A03"/>
<path d="M365.205 266.766C368.962 266.256 373.015 268.905 372.536 272.666C367.06 315.725 330.289 349.015 285.742 349.015L284.611 349.008C271.828 348.846 259.705 345.943 248.804 340.859C245.308 339.229 245.308 334.261 247.861 331.371C248.082 331.12 248.298 330.865 248.509 330.606C250.256 328.466 253.245 327.515 255.767 328.643C264.921 332.737 275.065 335.015 285.742 335.015C323.62 335.015 354.804 306.362 358.806 269.549C358.966 268.082 360.267 267 361.742 267C362.917 267 364.073 266.92 365.205 266.766ZM200.971 239.745C201.943 235.952 206.949 235.084 210.272 237.155C210.548 237.327 210.827 237.494 211.11 237.655C213.464 239.001 214.887 241.716 214.256 244.354C212.94 249.859 212.242 255.606 212.242 261.515C212.242 270.293 213.781 278.711 216.604 286.515C217.544 289.112 216.377 292.024 214.116 293.61C213.842 293.802 213.572 293.999 213.307 294.202C210.238 296.539 205.284 296.177 203.915 292.571C200.376 283.253 198.382 273.173 198.249 262.646L198.242 261.515C198.242 253.999 199.189 246.705 200.971 239.745ZM307.242 185.896C307.242 181.219 311.658 177.787 316.046 179.407C331.992 185.295 345.752 195.695 355.777 209.057C358.055 212.094 355.831 216.398 352.304 217.804C351.996 217.927 351.69 218.056 351.387 218.19C348.805 219.339 345.624 218.795 343.894 216.561C335.764 206.059 324.853 197.819 312.265 192.946C309.32 191.807 307.242 189.054 307.242 185.896ZM253.269 180.241C257.69 178.473 262.242 181.922 262.242 186.684C262.242 189.773 260.255 192.485 257.405 193.677C254.366 194.948 251.43 196.417 248.614 198.068C246.273 199.441 243.259 198.868 241.291 197C241.058 196.779 240.821 196.562 240.58 196.35C237.643 193.765 237.026 188.72 240.37 186.687C244.461 184.2 248.773 182.039 253.269 180.241Z" fill="#FB9A03"/>
<circle cx="363.242" cy="240" r="20.5" stroke="#FB9A03" stroke-width="3"/>
<circle cx="228.242" cy="315" r="21.5" stroke="#FB9A03" stroke-width="3"/>
<circle cx="223.242" cy="216" r="21.5" stroke="#FB9A03" stroke-width="3"/>
<path d="M223.242 204C229.87 204 235.242 209.373 235.242 216C235.242 222.627 229.87 228 223.242 228C216.615 228 211.242 222.627 211.242 216C211.242 209.373 216.615 204 223.242 204ZM223.242 210C219.928 210 217.242 212.686 217.242 216C217.242 219.314 219.928 222 223.242 222C226.556 222 229.242 219.314 229.242 216C229.242 212.686 226.556 210 223.242 210Z" fill="#FB9A03"/>
<path d="M237.242 321H219.242V309H237.242V321ZM220.242 310V320H236.242V310H220.242ZM235.242 311V319H221.242V311H235.242Z" fill="#FB9A03"/>
<line x1="230.742" y1="321" x2="230.742" y2="327" stroke="#FB9A03"/>
<line x1="220.742" y1="303" x2="220.742" y2="309" stroke="#FB9A03"/>
<line x1="228.742" y1="321" x2="228.742" y2="329" stroke="#FB9A03"/>
<line x1="236.242" y1="300.5" x2="239.242" y2="300.5" stroke="#FB9A03"/>
<line x1="224.242" y1="305.5" x2="226.242" y2="305.5" stroke="#FB9A03"/>
<line x1="232.242" y1="324.5" x2="234.242" y2="324.5" stroke="#FB9A03"/>
<line x1="222.242" y1="326.5" x2="224.242" y2="326.5" stroke="#FB9A03"/>
<line x1="215.242" y1="302.5" x2="221.242" y2="302.5" stroke="#FB9A03"/>
<line x1="237.242" y1="311.5" x2="243.242" y2="311.5" stroke="#FB9A03"/>
<line x1="213.242" y1="317.5" x2="219.242" y2="317.5" stroke="#FB9A03"/>
<line x1="226.242" y1="330.5" x2="230.242" y2="330.5" stroke="#FB9A03"/>
<line x1="230.242" y1="327.5" x2="234.242" y2="327.5" stroke="#FB9A03"/>
<line x1="217.242" y1="330.5" x2="221.242" y2="330.5" stroke="#FB9A03"/>
<line x1="224.242" y1="301.5" x2="227.242" y2="301.5" stroke="#FB9A03"/>
<line x1="222.242" y1="299.5" x2="226.242" y2="299.5" stroke="#FB9A03"/>
<line x1="227.742" y1="301" x2="227.742" y2="309" stroke="#FB9A03"/>
<line x1="232.742" y1="321" x2="232.742" y2="324" stroke="#FB9A03"/>
<line x1="235.742" y1="300" x2="235.742" y2="309" stroke="#FB9A03"/>
<line x1="244.242" y1="318.5" x2="237.242" y2="318.5" stroke="#FB9A03"/>
<line x1="246.242" y1="316.5" x2="237.242" y2="316.5" stroke="#FB9A03"/>
<line x1="219.242" y1="311.5" x2="210.242" y2="311.5" stroke="#FB9A03"/>
<line x1="219.242" y1="314.5" x2="212.242" y2="314.5" stroke="#FB9A03"/>
<line x1="222.742" y1="300" x2="222.742" y2="309" stroke="#FB9A03"/>
<line x1="220.742" y1="321" x2="220.742" y2="330" stroke="#FB9A03"/>
<line x1="229.742" y1="300" x2="229.742" y2="309" stroke="#FB9A03"/>
<line x1="226.742" y1="321" x2="226.742" y2="330" stroke="#FB9A03"/>
<line x1="224.742" y1="321" x2="224.742" y2="324" stroke="#FB9A03"/>
<line x1="224.742" y1="306" x2="224.742" y2="309" stroke="#FB9A03"/>
<line x1="211.742" y1="314" x2="211.742" y2="317" stroke="#FB9A03"/>
<line x1="244.742" y1="318" x2="244.742" y2="320" stroke="#FB9A03"/>
<line x1="245.742" y1="314" x2="245.742" y2="316" stroke="#FB9A03"/>
<line x1="245.742" y1="314" x2="245.742" y2="316" stroke="#FB9A03"/>
<line x1="215.742" y1="309" x2="215.742" y2="311" stroke="#FB9A03"/>
<line x1="242.742" y1="312" x2="242.742" y2="315" stroke="#FB9A03"/>
<line x1="231.742" y1="304" x2="231.742" y2="309" stroke="#FB9A03"/>
<line x1="222.742" y1="321" x2="222.742" y2="326" stroke="#FB9A03"/>
<path d="M355.499 241.823L360.62 228.323C360.693 228.128 360.88 228 361.087 228H367.063C367.4 228 367.641 228.326 367.541 228.648L365.492 235.25H370.378C370.763 235.25 371.003 235.666 370.812 235.999L360.991 253.087C360.693 253.605 359.903 253.26 360.08 252.69L363.242 242.5H355.967C355.617 242.5 355.375 242.15 355.499 241.823Z" fill="#FB9A03"/>
<path d="M363.242 242.5H355.967C355.617 242.5 355.375 242.15 355.499 241.823L360.62 228.323C360.693 228.128 360.88 228 361.087 228H367.063C367.4 228 367.641 228.326 367.541 228.648L365.492 235.25M363.242 242.5L365.492 235.25M363.242 242.5L360.08 252.69C359.903 253.26 360.693 253.605 360.991 253.087L370.812 235.999C371.003 235.666 370.763 235.25 370.378 235.25H365.492" stroke="#FB9A03"/>
<path d="M301.742 281.13C302.018 281.13 302.242 281.354 302.242 281.63V284.519C302.242 284.795 302.018 285.019 301.742 285.019H267.742C267.466 285.019 267.242 284.795 267.242 284.519V281.63C267.242 281.354 267.466 281.13 267.742 281.13H301.742ZM283.446 261.037C284.22 260.967 284.422 260.989 285.391 261.037C287.814 261.492 292.724 264.387 292.52 269.463L292.521 275.944C294.948 276.002 297.097 279.648 296.409 279.833C289.257 279.785 282.338 279.824 273.075 279.833C272.88 279.655 273.377 276.513 276.965 275.944L276.979 271.025L276.965 268.167L281.119 273.618C282.176 274.219 285.077 276.254 288.268 273.618C291.566 270.893 289.799 266.936 288.646 265.84L283.446 261.037ZM287.335 266.223C288.627 267.348 289.769 270.381 287.335 272.704C285.292 274.653 282.398 273.178 281.502 272.056L276.316 266.223L271.779 261.037C272.135 261.32 275.013 260.392 275.021 260.39C275.114 260.52 276.734 258.717 278.261 257.148L287.335 266.223ZM284.742 266.223C282.953 266.223 281.502 267.673 281.502 269.463C281.502 271.253 282.953 272.704 284.742 272.704C286.532 272.704 287.983 271.253 287.983 269.463C287.983 267.673 286.532 266.223 284.742 266.223ZM280.629 241.209C281.709 239.697 284.647 237.451 287.758 240.562C288.406 241.426 289.313 243.672 287.758 245.746L274.795 258.709C273.128 260.166 271.556 261.375 268.962 259.357C266.559 257.488 266.998 254.921 268.313 253.524L280.629 241.209ZM271.555 252.876C269.765 252.876 268.313 254.327 268.313 256.117C268.314 257.907 269.765 259.357 271.555 259.357C273.344 259.357 274.795 257.907 274.795 256.117C274.795 254.328 273.344 252.876 271.555 252.876ZM295.761 250.667C296.281 250.142 296.584 249.615 297.057 250.019L300.298 253.259L299.649 253.907L297.057 251.314L292.52 255.852L295.112 258.444L294.465 259.093L290.575 255.204C291.043 254.682 291.359 254.365 291.562 254.245L290.575 253.259L294.465 249.37L295.761 250.667ZM294.239 248.339L289.055 253.524C288.878 253.651 288.426 253.676 287.758 252.876L285.813 250.932C285.881 250.772 285.877 250.243 286.462 249.635C287.266 248.799 289.054 247.259 289.702 246.395C289.918 245.962 290.351 244.969 290.351 244.45L294.239 248.339ZM284.518 239.913C282.728 239.913 281.277 241.364 281.276 243.153C281.276 244.943 282.728 246.395 284.518 246.395C286.307 246.394 287.758 244.943 287.758 243.153C287.758 241.364 286.307 239.913 284.518 239.913Z" fill="#FB9A03"/>
</svg>
